<svg width="50" height="51" viewBox="0 0 50 51" fill="none" xmlns="http://www.w3.org/2000/svg">
<g clip-path="url(#clip0_416_296)">
<path d="M25 50.8181C38.8071 50.8181 50 39.6252 50 25.8181C50 12.011 38.8071 0.818115 25 0.818115C11.1929 0.818115 0 12.011 0 25.8181C0 39.6252 11.1929 50.8181 25 50.8181Z" fill="#F0F0F0"/>
<path d="M50 25.8181C50 12.0111 38.807 0.818115 25 0.818115C20.1094 0.818115 15.5475 2.22388 11.6941 4.65122L17.1739 6.97944L9.78262 10.1199L17.1739 13.2602L9.78262 16.4004L17.1739 19.5406L9.78262 22.6803L17.1739 25.8199L9.78262 28.9601L17.1739 32.1001L9.78262 35.2399L17.1739 38.3799L9.78262 41.5202L17.1739 44.6599L11.6966 46.9869C15.5494 49.413 20.1104 50.8181 25 50.8181C38.807 50.8181 50 39.6251 50 25.8181Z" fill="#751A46"/>
</g>
<defs>
<clipPath id="clip0_416_296">
<rect width="50" height="50" fill="white" transform="translate(0 0.818115)"/>
</clipPath>
</defs>
</svg>
