<svg width="50" height="51" viewBox="0 0 50 51" fill="none" xmlns="http://www.w3.org/2000/svg">
<g clip-path="url(#clip0_416_296)">
<path d="M25 50.8181C38.8071 50.8181 50 39.6252 50 25.8181C50 12.011 38.8071 0.818115 25 0.818115C11.1929 0.818115 0 12.011 0 25.8181C0 39.6252 11.1929 50.8181 25 50.8181Z" fill="#F0F0F0"/>
<path d="M33.1198 19.2964H29.8489C29.876 19.6558 29.8913 20.0185 29.8913 20.3833C29.8913 22.8016 29.2868 25.1457 28.233 26.8142C27.9079 27.3289 27.3616 28.0556 26.6304 28.5459V19.2963H23.3695V28.5459C22.6384 28.0556 22.092 27.329 21.7669 26.8142C20.713 25.1457 20.1086 22.8016 20.1086 20.3833C20.1086 20.0185 20.124 19.6557 20.151 19.2964H16.8801C16.8591 19.6541 16.8477 20.0164 16.8477 20.3833C16.8477 27.088 20.4285 32.3398 24.9998 32.3398C29.5711 32.3398 33.152 27.088 33.152 20.3833C33.1522 20.0164 33.1407 19.6541 33.1198 19.2964V19.2964Z" fill="#D80027"/>
<path d="M10.3261 12.7747H13.5869V14.9486H16.8477V12.7747H20.1086V14.9486H23.3694V12.7747H26.6303V14.9486H29.8911V12.7747H33.1519V14.9486H36.4128V12.7747H39.6736V14.9486H47.519C43.4756 6.58618 34.9114 0.818115 25 0.818115C15.0886 0.818115 6.5244 6.58618 2.48065 14.9486H10.3261V12.7747Z" fill="#6DA544"/>
<path d="M39.6739 36.6876V38.8615H36.4131V36.6876H33.1522V38.8615H29.8914V36.6876H26.6306V38.8615H23.3697V36.6876H20.1089V38.8615H16.848V36.6876H13.5869V38.8615H10.3261V36.6876H2.48065C6.5244 45.05 15.0885 50.8181 25 50.8181C34.9115 50.8181 43.4756 45.05 47.5193 36.6876H39.6739Z" fill="#D80027"/>
</g>
<defs>
<clipPath id="clip0_416_296">
<rect width="50" height="50" fill="white" transform="translate(0 0.818115)"/>
</clipPath>
</defs>
</svg>
